<mxfile host="65bd71144e">
    <diagram id="PX99g6jE-ugPLsM-KGjg" name="Page-1">
        <mxGraphModel dx="840" dy="1714" grid="1" gridSize="10" guides="1" tooltips="1" connect="1" arrows="1" fold="1" page="1" pageScale="1" pageWidth="850" pageHeight="1100" math="0" shadow="0">
            <root>
                <mxCell id="0"/>
                <mxCell id="1" parent="0"/>
                <mxCell id="2" value="" style="shape=image;verticalLabelPosition=bottom;labelBackgroundColor=default;verticalAlign=top;aspect=fixed;imageAspect=0;image=data:image/png,iVBORw0KGgoAAAANSUhEUgAAAMgAAADICAYAAACtWK6eAAAABHNCSVQICAgIfAhkiAAAAAlwSFlzAAALEwAACxMBAJqcGAAAB2ZJREFUeJzt3V+oZVUdwPGvg2KSIKglOuo1fXAyJdMRBf9EjyHJpAYyKSOZOI9KBEky6oyBIqL1UqnB1MNMZCpR0IsP2VReJiN70BgV0ZSRckYzFL3gcH1Y947n7s5e++xz9tlrrXO+H1gP56y99/ndc8/v7LXWXnsdkCRJkiRJkiRJkiRJkiRJkiRJkiRJkiRJkiRJkiRJkiRJkiRJkiRJkiRJkiRJkiRJkiRJkiRJkiRJkiRJkqSMHJE6gBonAVcD5wDHJI5F3foAeB54HHgrcSxFup3wJi5bZrq8D3wHtXI/6f9xln7LvWQspybWFcDTqYNQEpcDf0odxDDrUgcw4NbUASiZ21IHUCenM8gB4ITUQSiJA8BnUgcxTE4JstxQ/w7wFPAecBFw7gjHfA24Z+DxAnDHHNXXWSK8l28CG4BLSftZWCav1kyWYh25XcCxle03Ax827PdsZZ+Nc1Y/rCwCp1b2u4SQLCk761k6MnUAI9gL3AAcqjy/i9Ak+1Fk3wXg0YHHJ85ZfdUB4ErgYOX5ReAa4M8N+yuhum+WzZF9jiY0uVJ+85VUHoi8lwDPJIwtSyW0+/ZF6paAV3uKYxa82FAfe6/nUgkJsj5Sd2RDvdY6paF+oZcoClLCKNZvgatq6rYAOyPHTD2KlLq+6hXC/LalIXXnAc+R7kszp89ilmLt02H/9CuAdxv2Sz2KlLp+WNlN6LsN+hyh+ZWyf5SlEkaxAHYAm4AnCZ3yywizfZu+7RbIe5Rp2vXDXEcY1t0N7CdcT7oe+PQI+86dnE5r2X6LqBc5fRYPK6GTLiVjgkgRJogUYYJIEaWMYo1jO2HUq8424Os9xTIr3gL+lTqIPs1ygrxOuPBV5+2+ApkhTwBbUwfRJ5tYUoQJIkXMchPrkZWy6mbWXnXW5D4LnD6lY1en0SQxywmi6bsa+PGUjp3FlfUSEqTujXJqiqbOPogUUcIZZFz2OTQxzyBShAnSv7sJ/apxyj8SxDvXTJB+3Q3clToIja6EBBn3Fs1thKkmqyX1vCuTo0Cz3Ek/baWsSrnur8lRqBLOILPgrtQBaDwmiBRRQhOracpBXX+kej/IXN3HoG6UkCDjarofRGpkE0uKMEGkiBKbWKPO4t1CWEFw1U4y/aFIaRSjXhAcd+3Xb1eO8+gEx0q17uxzPcY8rPykw7+lCDaxpAgTRIoosQ9SvS5S14T5OWv7HHumE47Uj3Hb76P2Oarsg+RVsmQTS4owQaSILJZWWVF3mh21z1H1OvHlRU8Djh/xWJPq6k7As4FPdXSs3OT0WTwsp6C6ThCVJafP4mE2saQIE0SKKPE6yJcqj/9eebyd0P8Y1RbCr+ZKWevqOsj5LV+3z+shFq+DSLOjxCZWW+uArwBnAntx8bU2fg38IHUQKZWYIG1uoz0K+A3w1YHntgN3dhrR7DrInN+2XGKCfLHFtjeyNjkgLCj3K+D5rgLS7Jr1PsjGls9La5R4Bmnj5ZrnX+o1itnxDeD7Pb1W29HIqSgxQW6uPH5k6FbBw8C3gA0Dzz0GPNN1UHPiBNo1cYtXYoJUfxQnliDvAhcTkuQsYBH4JRmPuysvJSZIW/8DHkodhMo06510aSIlnEG2ttz+Wtauh9VkQ/MmmlclJEjb3+Hua5RFc8AmlhRhgkgRJogUYYJIESaIFFHCKFZfqkuVTtsCcEfDNtVpNW1tY+0v/apgqW/5bFqqtGsbR4hpUpMuVVr9uYOtEx6vuFtwbWJJESaIFFFSH+Qd4CngPeAi4Nwpv96NdLsc0GvAjgmPUZ3JXLWd0X7ueonwXr5JmGpzKZmubKhPxNqju4BjK9tvBj5s2G+SPkjXywE9Wzn+OH2Qpu2rNxkN64MsAqdWtruEkCz2QSpKaGLtBW4gnDkG7QK+2384RTsAXAm8UXl+Ebim/3DyV0KC/BA4VFP3MPB+j7GU7heElUqG+QshUTSghD7IvkjdEvAq8IV+Qineiw31+4jfKvAC8NPuwslfCQmyHvhbTd064OQeYyndKQ316xvq/7hS5kYJTazYBbxN9PcjOLPgeuDomrqzgC/3GEsRSkiQrzF8SsYFzNnpvgNnAjv5/yQ5GXicsBKlBuTUxFqmfix+B+Fs8SRhNOtiwq21/kPbu47Qz9gN7Ac+D3wTOG7ItufQ/pbncfyb8L/NTk4JchA4MVJ/4UrR5M4Abh9hu8tXyrT9nkwTJKcm1p7UASiZP6QOoE5OCfJg6gCUxH+Bn6UOok5OCbIHuC91EOrVIeAm6i9eJpdTggB8D7gNr47Pg/3AVcATqQOJyamTvuohwpSITcB5wK2V+urQ7i0T1q/656gBduQ/TH+Y+jHymj6yTFgK9q/A7wiTTTWhtjNc29bXmfZs3nG0nc2rCeXWxJKyYoJIETn2Qaqa2umT1td5GvhozH2HGeVOvyZ1kzZXfdDBa0iSJEmSJEmSJEmSJEmSJEmSJEmSJEmSJEmSJEmSJEmSJEmSJEmSJEmSJEmSJEmSJEmSJEmSJEmSJEmSJEmScvUxcwUAt5B8DFgAAAAASUVORK5CYII=;" parent="1" vertex="1">
                    <mxGeometry x="70" y="285" width="240" height="240" as="geometry"/>
                </mxCell>
                <mxCell id="3" value="" style="shape=image;verticalLabelPosition=bottom;labelBackgroundColor=default;verticalAlign=top;aspect=fixed;imageAspect=0;image=data:image/png,iVBORw0KGgoAAAANSUhEUgAAAgAAAAIACAYAAAD0eNT6AAAAAXNSR0IArs4c6QAAIABJREFUeJzt3Xe4NGV9N/AvipQHkG4DRMWCBRXRWGNNUKJGoykWQI0Fo2LUqFFi3miUolHUEIwlAU00ih0Vxd7Q10TBLsQLbKgoSEeayvP+4X1el8PZ3Zndabvn87mu33Ue2N2Z387uzu+ee+65JwEAAAAAAAAAAAAAAAAAAAAAAAAAAAAAAAAAAAAAAAAAAAAAAAAAAAAAAAAAAAAAAAAAAAAAAAAAAAAAAAAAAAAAAAAAAAAAAAAAAAAAAAAAAAAAAAAAAAAAAAAAAAAAAAAAAAAAAAAAAAAAAAAAAAAAAAAAAAAAAAAAAAAAAAAAAAAAAAAAAAAAAAAAAAAAAAAAAAAAAAAAAAAAAAAAAAAAAAAAAAAAAAAAAAAAAAAAAAAAAAAAAAAAAAAAAAAAAAAAAAAAAAAAAAAAAAAAAAAAAAAAAAAAAAAAAAAAAAAAAAAAAAAAAAAAAAAAAAAAAAAAAAAAAAAAAAAAAAAAAAAAAAAAAAAAAAAAAAAAAAAAAAAAAAAAAAAAAAAAAAAAAAAAAAAAAAAAAAAAAAAAAAAAAAAAAAAAAAAAAAAAAAAAAAAAAACAfmzSdwId2CnJjkl2SLJ538kAMGhXJDkvyblJftF3Mm1apgbAzZLcK8kdktwmyS3L/wOAWZ2R5LtJvpPkq0lOSvLDvpNqwqI3AB6W5BFJ9kuyc9/JALAunJXkI0nek+TDfSczq0VsAOyS5P8k2T/Jhr6TAWBduzjJsUkOTXJ238nUsUgNgOsleUmSp/adCACscnmSo5O8NMmFfSdTxaI0AP4yySuTbN93IgAwwVlJDi6nBwZt6A2A3ZL8R5L79p0IANTw/iQHDfm0wLX6TmCCp5RRl4o/AIvm4aWGPaLvRMYZag/Ae4a80QCghqOTPKPvJFYbWg/Alkk+ofgD0KNjkjwyyc2TbFt6ol8wx8RAT0/yloZznNuQegA2lOsq7z3HMi5K8vUkX0lyZpKflQ9spyQ3KhMD3SPJHRvMG4DlcHaSRyf51JjHd0zy1iQPmnH5xyV51Bz5La2PJdk4Rzy6xrp2S/K5Ode3XuIrSf4xyb5ldkVguG5ZfquHJjllAPuPRYrzk9yi4nb+8BzrOabl78DCOX7OD+6jM6xzjwF84YYc303ykBY+a6A7j0jygwHsTxYh6hxE7ljuFzDruo5s8TNfKIc28MG9Y8Z19/2FG2q8N8nWDX/OQD+2S/LJAexXhhyzzO3/8jnX+ectfNYLZd8kVzXw4R03w7o3H8CXbogx7twXsNi+OID9y1BjlgF6+865zkvLjet6s2mP694xydsbGoi4cYbXXNHAepfN2VNapTcqo2KHdvUIrHdXJTltyqQzf5Hk20m26TCvRTHL1L1nzrnOLUvv9e3nXM7M+mwAHJFkhx7XzzX97ZjLXI4o0zG74yIM2/9N8pok71zjsTPLKdcjeshr6Lad4TVNnCbdK8mzyme2bty54e4bYwDmj++usX12KjuUvnMTQtSLE8sR5mpblEZ+3/kNLb4zQ/04uKF1X5zk+jOsf259deW+oqf1Mt671vh/n0pytx5yAebzwCSvXuP/X57kQz3kM3S3TnKnmq95QkPr3jrJCxtaVi19NAD2TnK/HtbLZKsvpfyz0j0FLKaDxgwy+1gPuSyCw2o89zGlljXloD7udtvHGIBeWjpM9ZNV/31AT3msdmmSLze8zK3KaSia860k54557FpJfr/jfPitJyb5m1X/b63Tffy21+RVa2yv1e6d5N8bXvcWSZ6a5PCGlztR1w2A65UjS4bnvFX/XWfWv+OSvH7Kc26f5LU1c7q0TLn5+Zqvm2Srcn50mudPaHjsnOTYsqxxTkry9zPmOBS3SPLGCs9715SrR96sAdCbu6/x/2a55n29eE7ZZocn+eCqx25TBuw9uaV1/9WyNwAOrPn8l1a8Ln3W+y1XPRVx8Dq4QdGvVv131e/GuyvMbb1Xkv9TM582i/+9pjzvoAmFb+ckn51S/D9dZlG8dI5c+3bLcpnuNO8sl5eNc2ySxzWYF/Vcd43/d1kPefTlZ2Xa3lPKjIi3TXKXJH864TV3T/KBJD9K8v3y/7apOEbgK6Vmfb3sU+9UbiRUZSzVbuW5n6n43hbON2uMjPyXvpNd5XsNjzo9rVyS85Qk+5VzSkeVWyF/p4dRsKsvaTm9wmveW2G73W6GUce/nPOmUGvZquL9H546YRk7l67uSa//5JjR14vkFknOqrCt3j1lOcf28D0WV49vrfG5bN1xDmeUgd9PKY36JyR5XZL3lwLb1nr/c8LlfXsmObnBdV1SLpUe54Ay2n/acpo+tTAYN6+5QfftO+FV3t7QF+VtSfapsL49y6CUrn6kdRsAx1d4D7cpvTN18ri0heK/obSqp637ryYsY4fSqp/0+mUp/j+tsK2mFf9/6/C7K8ZHnw2AD5W7r05zlyT/3PC6X1Tx+/6JBtZ1ScUB07crz520rHHjaBbe02pu1KHNRf/cOb8kZya5wwzrvXGSEzr4sdZpAFS5jGjPGYr/L1s4V7yh4pH/pOK/Y5JvTHn9MhT/mzdU/N/UwfdVVIs+GgDnz3il120amq74/TXWuUMD8yLUmdP/Lyosr+7liAvhfTU26Lf7TnYN953jC3JakhvMuf6/b/lHW7UB8JEKue6Z5Jya6780yf3n3EarbSjn66ete97i//GG8+5D1eL/ninLUfyHFV03AM5Mcqs5v4tHz5nDHjXX95w51jXLFUrTTj08f4ZlDt5PamzUWW7v27abzfEluW1DORzQ4g+3SgPgjHK5yiS3SvLzGdbfRvHvotv/4xW2ydDtkeTHFbbVtOL/xha/n2K26LoBsNZVB7OY9YDn1BnWdYs53m/dwc1J8uIpy5zWw7Zwrltzo76174TXsM2MX5Cm5z2Y9uWZNao0AL4wJbeqg8dGo60j/yrd/k+bsIwqR/4nLkHxv2k5apu2rd43ZTlvaOl7KeaLLhsAL2v4uznLINLPzriuWd/zQTOs67FTlvmNGd/DYNWd+3+oLaC6X47Vk+s05X9a+PHO2wCoOnhsdSzqkf8JDefdh5tULP7HT7gsdJMycrnp76NoJtZqAMx6MDMpftZCY3jzmj3HG5N8aYb1bDrHbemfOcP69p+yzMtnWOagPaLmRh3iPemvN8OX4+kt5XLXFn7A8zQAbjpD8R/qkf96Kf67NXTk/7oWvouiueiqB2DSb2oef14zjwtmWMdec7zvo2dY3+EVlnujGZY7WI9p4Evbt9vN8OVo8/a5TYyWHY1ZGwA3q3j+eDQuTfKAhrdH1SP/acX/a1NevyzFv8r119Mu9VT8hx9dNQC2a+m7mhl6Af6g5vIPneN9/3SG91Plt7dUVwL8Zc2N+psBXlJ1YM33cHLL+Tyv4R9wlQbAF1c9p2oX8mhc1tKR/+crrHtat/+0c/4fS3KdhnPv2q4Vd0DTLqX6l4a/f6Kd6KIB0PbMdXXnCPh0jWXvkOSiOd//E2us73EVl/mgGbbTYB00w0adNl1r1/61Zv7/0XI+ezf8I67bA3CTMlVmnXW0VfyrdPs/Y8IyqnT7f6DhvPvQ1JH/UQ1/90R70UUD4DUtfV9XPGyGnA6puOxPNvD+L644EdBeFWcD3Lhs02c/dYaNelzfSa9St5t7lnNDdWzX8I+4TgNgtzKvdp3lX9ZSt38Xxb/OxCJDVbX4T2vovLbh751oN7poALR906tZTr9uLAdhNxmzzD+s8LuvExeX/cxaPdcbymDBabMAjsaTWt6mSYc3A7pyhtf8eZLrJ3l5xZtXfLnMJFfHfSs8Z5Ny3niXmsu+pObz67qgvN9JN6Vpw67lUpvda7zm8iQPLa3tpmwoN/mYNnPgwRPuK7FduY7/9hNe/4EkD58jzyHYrTSUxu0MV5yQ5I8nPP7aGUc9s9zOb3n5Z874ugNKfKRcsnt6Obf++BqTBf24TGq295TnbV16xg5N8pZyNcKvSo05cIaZbX9T8/mDVvf8+SxxuxnyajOfN7SwHdvMv0oPwHdnuClSG0f+W1Y88j94wjK2qzAjV5WbHQ1d1SP/1bc+XU23/2JGFz0ATc91stoNOt5mvyhd8DusyuOuDZ0yqBL7t7xNO1X3KoBZoso5mFGbt5zPtB3qvHZuON9Z7gY4Ldo4579FxR/hpAF/21Yo/h/q4XbZTas64G/ad/XIDn6/op3oogFwVEvf3xX7dLi9Pld6nid5YQd5TLrF9sL50w422NB6AL7XwnYcdZ+G822jAVD3cpxptqh4965J8y9sW+7ZPen1Q52Iqo5dK/bWTLux06s6+O2K9qKLBkCTp/bW0kUP8sYyjXDVU6rzXDpYJR7Z8jbt1MM7+PCG1gDY2OA9ANbS9GCsphsAi1r839Vw3n2oWvynzWmg+C9+dDUPwPYtfZdTBuF2sa3uXDOv/20xl0ljcRbOgzv48IbYADishW25YpZpdydFkw2Avor/X09YRpXi/86G8+5D1eI/7Q6Giv9yRFcNgFnmxK+i6VOd42KWu/rNe4v4SfFHLWzL3jyogw9waGMANpZR+m1M6XhIC7k20QC4ooUJLKqe83/WhGVUOef/3iTXbjj3rlU95//JKfO2v7KD34boJrpqAPykXJnTtNd3tJ3eOENu92gxn6YPonr1gA4+wCH2AGxs4Xzy7mUq3abzbKIBMNTi/+Uprx/anBOzqFr8P6H4r6vo8m6ARzT8na57E7l5YpZ5W27ZYj5VLlFfGE0PWFsrhtgDsBJ/2dB2vE6FbuxZY54GgCP/fjV15H9Yh78J0U102QDY2OBVP9et+J1uKma5x8e9Wsznng1tx0G4ewcf4FB7AFbiHg1sx1nuj1015mkAtFH8q5zzn1b8p902+R0N590HxV9Miq4bAOcmudWc3+ktyiRfXW6nX85w/5mm78cyGr835zYclC66cu5TM6cb9vBjnHV+523LoK02c5u1AbDfjO9pnC0rHvk/e8r2mtZT8taG8+5D1Ul+Pjfl/GyV25OKxYy1GgDbtLzOC+c4h32jJKf0tK0mHVCsdu2Weyj2mXH7DdIdOvjwTqowgcOKbcs5nz6+ZB+t0U22TZIXJDm7g7xmaQA0feS/ZQNH/tuUaTgnvb7tGzV1YbeKo/0/o/iv6+ijAbAxyVVJ3lPj1OzOZQzBhT1uqwvK7c2reGnLuUyannzh3LbDD/Gcck/3z6wR/5PkrB6/YKPxv0leVuayX/nS7Vg++EeVc9NtDPYbF3UbAEM88l9Pxb+JI/+2d2Ki/+j6FMBacXK5culuI/cQuV6ZX//xZa7+vrfTSvwsyQOn/P66mAlwzzn2D4Oz5wA+WDE5qjYAhjrgb+sKxf/t5eZOi6zqOf/PTyn+/zSA75xoP4bQAFjEOCXJE0cOznYrs/N9qKP1V71Z0ULYYwAfqJgcVRoAin+/FH9RN/o6BSDmi2l37lwouw9gg4rJUaUB8MWGvxddFf+3rKPi/yXFX4yEBsBiRt3bzw/ajQawQcXk6LoBoPhXV6f4T7rvuOK//kIDYDGj6oD2hdDVfM5i9uiyAaD4V6f4i3lCA2AxY4cW9ymd234AG1RMjq4aAIp/dYq/mDc0ABYztmlxv9I5o06HH100ABT/6hR/0URoACxmTJq1c+FsMYANKiZH2w0Axb86xV80FRoAixmbtrh/6dy1B7BBxeRoswHQVfF/4zoq/icr/qJCaAAsZiydvjeomBxtNQCaKP4bKhb/RVen+G87YTmKv1gJDYDFiytb3Mf05soBbFgxPtpoAFQt/i+YsIwNZWKbSa9X/H9H8RejoQGweHFpi/uZ3vxyABtWjI+mGwCKf3WKv2grNAAWLy5scV/Tmz7v8iSmR5MNAMW/OsVftBkaAIsXv2hxf9ObXwxgw4rx0VQDYDPFvzLFX7QdGgCLF2e1uM+5mi4vNfjcHLMbbV9ujnDdhnOino0VnvP+JPef8pxDyr2/17JVkhOT3GvC618z5bbAi2DX8puYdtOPbyR5wIRuwcOSPLeF/FheVX7HzO7CJD9Mcv6Mrz+74XzG6rIB8IgGlnHjcje6Zya5bQPLW+20JD9vYbmzuv6C3Rf6w0n2m/KcQ5IcPuaxDWUZ66H4fzbJTac872ul+F8w5vHDyr3JYYjOLj2Jv+o7keI6SW6ZZKcWlv21JEcn+ViSH7Ww/FZ02QC4wRzF7OdJTi0b9o0lnp3kyAbyOj7Jm5Kc0MCy2vKQJAeVv0PVRPH/SJJ7T3j9MhX/m0153krxP2/M44dPOY0CfTgryauTHDfgQrhHkkeVfcmOcy7rsiR/XWrIqNskud6Myzx1YAeijXhMA+dGvprkCSPLvHuSc2dc1tfL6xfJvcuXo43zTlXGAHxhTF4frrD8SUeqG0p3+KTX/1OD27Evuyb5XoVt9Y0pp8sOH8B5SrEYsdYYgLamZn9Jki1b/P007bpJ/nmO9/vTJHccWd5BpeE+73Z8dI/bpDV/2uAX7cMj9zy/5wxzDJySZPOet8esNrTUCJhlEOBm5ah92rLnHfB3VAvbsWtVB/xNK/4G/Ik60cUgwKsq9P4N2UEzvOdLkty6vH77cnDU1PZ8ZM/boxUPafhL98GRZT+/5munDbwaur1a2FHM0gNQ5cj/kAnvY0OSz0x5/Sta2H5d23XM9lwd35jSJenIX9SNLnoA/qXF305XTqj5nkd7ok9peHs+uMft0Jo/bOHLfdDI8n9a8TVv6HEbNOl9DW/Lug2AKj+Yv5uQ/5YVuv3HjRdYJFW7/b+j+IsWoosGwA1b/P10ZZ8a7/drI697Uwuf2QN63A6tuXcLG2p0woSXVHzNop33H+cRDW/LOqcA5j3yrzJR0LIU/zMq7qR3nrCcV7bw2xHrI9puAHyoxd9P16r00m1M8pTy/Hu09Jn9fs/boRV3bWljrZx7unPF5y+L7RrejlUaAF9uqPh/YsrrD21523Wharf/t6cU/1e19LsR6yPabgA8r8XfUNdeV/E936A8/50tfWZ36Xk7tGLvljbWi8vyNynXm056bmcTLHTkkga3Y5UGQJWYNOCvypH/soz2rzLg79Qpxf+oln4zYv1E24MAn9zi76hrL6zwfldm6btWuWlPG5/ZHbp6w9fqakVJrmhpubuVvxuTnDnlub9uKYe+XNR3Aqu8aMIMf1uU7sJJswQetgRHFCvX+U8baHpqOS12zpjHX5XkGS3kBxsbXNZvGlxW36rchGfltPPuLV7y2FatvIZlaABsNvLvaVMvbtJSDvy2J2Zc1/0WZdDgpMEtL5kyaHAR7FouaZw2yc9pSe4zofgfleQ5LeQHsR8cq8p2Waljm0153jw6awB0ORNgZ2+Kzh1RCvhaVor/pCP/55WBbotspfhPO/I/fcqR/1GO/GFdu7yrFS1DDwD9OmLCLH+K/9WdXkb4Kv7AOE4BsBAU//rF/2djHlf8gWgAsAgUf8UfaJ4GAIOm+Cv+QDs6u1qtywZAyk17WGyTiv9miv/VKP5AHZd2ubKuGwBtjG68auTf065vvWrK44umyet5q/jqlNv6vn9K8X/OkhT/z1Qo/mckue+E4u86f2C1TnvKu7wMMC31AIw2YqZdx9l1g6dtXV/PO64Bt1mS45M8aMJrD16Cu4ZVPfL/QSn+PxnzuCN/YC2dNgC6LojGASwfxf/qflC6/X885nHFHxhnqRsAnU1wQCcU/6tT/IF5LHUDQA/A8lD8r07xB+bV6UFy12MANACWQ5Xi/5Qkb+owpzYo/kCX9AAwCGtdYbBR8b+GHyv+QEM0ABgsxf/qFH+gSUt9GaAGwOJY6xLDO095zXos/j8Y87jiD9SlB4CFpPj/juIPzKLTQYAaAMxro+J/NYo/MKulPgVgHoDlsjHJ45P8R9+JzOn6ST7bQPF/teIPzKGzGwHFGADm8Jsk+yd5R9+JzOn6Sb6Y5GZTnvezCsX/WS3kB6wfS90DoAGwHH6T5M+SvK/vROak+ANDYgwAg/brdVr8Tx/zuOIPNEUPAIP1qyR/kuSEvhOZk+IPDNFSXwZoEOBi+4ri//8p/kDTlroBoAeAPin+wJBpAEALFH9g6DQAoGGKP7AIXAUADapa/M9R/IGe6QGAhtQp/vdW/IGeaQBAA+oW/9PGPK74A13RAIA5Kf7AItIAgDnsovgDC2qpZwJsY4Tj6Hu4aspzpz2+aDYu+frq2iXJSRXu6ndOkvtMKP6vUPxZYk3+joe+T6ijSn1Yeb/XaSmHy1pa7pqWYSbAnUb+fcmU527Swvr7tGzvZx51i/+pYx5/RZLntZAfLKNl2gdVeS/nlb87TXnerJa6B+DKFpa588i/L5jy3B1bWH+fdq7wnCYN9ce+S5IvJNl9yvN0+0Ozv+PtG1xW36rUh3PL3+u1lEMbNXKsZRgDMPqhnT/luZv1UDTbcoMeGnBDtEuSz1Yo/ucnud+E4v9KxZ91oslu+90aXFbfpvUeJsnZ5W9bdcQgwJpGW2LTGgBJsl8LOfThIX0nMAArR/57THneeaXb/9tjHn91kr9pIT8YoiZ7AB7W4LL6tEmSh1d43jnlrwbADNp4c5uNjPgeN5HLqGcPuCu7qmsneW7fSfSsarf/eUnum+SbYx7X7c9602QPwE2W5GDkwCQ7VHje98vfW7eUx1LfMXen8uVrOh5Xlr93xec/v+ftMK+XtLANt161jtPXeM4Xenq/q+0yJr/VcV6SvSYs57CWvo9CDCW+tcb3fuuG1/H9JNu2+Htv265JflHxvd6ovObslj6vZRpTcQ3XbWmjHTOyjssqvmZRW62PbmkbVmkAfLGn9zyqTvG//YTlHN7SdhRiSNFFA2Bjkk8m2dDi774t2yc5ueJ7PKO8Zs8WP69F3Ia1tLHRRrv+v1DjdS9OsmV/m6KWbcpAtba+eIvQAKhT/O8wYTmKv1gv0VUDYGOSryW5Y4u//6bdL8kPary/lQPNg1r8vJZeWxtuZTTqi2u+7qdJXl4uD7t+v5vmGm6Q5AHlPHXVLqpZo0oD4KSetkNqFP9zpxT/Q1vejkIMKbpsAKzECeWcelvnyeexd5KnJ/ncDO/rUWUZx7W47ZbeFS1tuH8oy9+9zOjU9w9v0WLIPQC7VGypnzvlnL8jf7HeYq0GwDYDyGvR4sIkm5fT2L9qaR2XtrgPXVPXVwGkxcscDiqj+3+Y5OMtrYPuVR3tf+GU0f6HJ3lBC/kBy++YUrue2OL8K51fAbBMDYAbJnlg+febWloH3apT/O+v+AMtObr8fVqL6+j8Znl9NADabOU8sfx998j1mjRnY4frqjrD30Wl+J8y5vHDFH+4mi5/x8vg4+WU6D2T3LzF9ayLBkCbb/JPRj6gv25xPetVVxMoVZ3h78Iykndc8T88yQtbyA8W2aJPhNa1vy1//67l9WgAzOnaSf65/PuDxgIspLrd/pOKvyN/YB5vS/LVMpV429PIawA0YL/yYaWcr/lVy+ujOYo/MBRXlFljN0nyuo7W16llGwOwYmXAxumlGNCMNs8d1jnn/wfO+cPMjAGo5rAyT8wBSW7TwfpcBdCQ25ab/iS/nR9gXLFgGFaK/7Rz/heViZG+MubxlznnDzTgK0n+sVz339VB5LpoAFzZ0XqOSHKr8u/HdrjeZdbG4KGqA/4uKQP+xhX/wzsYpAPLwCDAya4sR/1J8q8jNwDqYr2dWtYegJTbBL+r/D1Nt/AgVT3nf8mUbn/n/IGm/G2pGQ9L8pgO17suxgB0+Sb3Kt3CSfKaAdzMht+pW/z/e8zjij/QlM8keW2SnZMc2/G6NQBa8NwkdysDXx6d5Jcdr59rUvyBobmoHPFvTPKf5VbBXdIAaMEmSd5ZBnP8KMkzOl4/V6f4A0P0zCRnlfvKPLDC85u2LgYBdt7KKbcKXrk08M1Jju8hBxR/YJiOT/KWMhj5VT3lsC56ADpv5RT7J3lo+fcTkpzTUx7rleIPDNE5pSZcK8lxSbbqKY910QDoowdgxVvKXQPPH7nMg/Yp/sBQHVBqwvOT7NNjHhoALds+ydvLvz/awyjP9UjxB4bqmFILbp/kpT3nogHQgfuM3Cnw4DIwkHZULf6XKv5Ax35UBv5tVrr+N+05Hw2AjryizBL4y3JpoLmxm1en+D9wQvF/seIPNGz0svCXJdmz74RcBdCdlVkCNy2TAx3Zd0JLpm7xP2nM4y8o93IAaNKryr7/HmWumCHQA9Ch0VkCDylTPzK/Jou/OzkCTTut3DdkqzImbCj3RtAA6NjzyyyBVyb5iyS/7juhBaf4A0P267Kvv7JMD3/jvhMasS4aAEOaineTJO8oLcFv6G6eyy5JPleh+F+WZL8Jxf/vFH9o1Xoe8/QPZV//R0me1Hcyq6yLMQAX9rDOSXZP8rry7yOSnNxzPoto5cj/ZlOed2mSfUtDYS0vGDktA7RjKF3eXTu57OO3LzPCDk3ntbGPBsD5PaxzmgPLLIFXle6hvmYrXES6/YGhu7zs268q87/s3HdCaziv6xVqAPzOyiyBZyT5m76TWRBVi//lij/Qo+eUffsBSR7WdzJjdN4A6MN25RzUEOMzI3l+egD5dBlbr/qcTl/jOV8ceXyXJD+osNzLktx/wvfhBQN470Isa3xrjd/cNgPIq8v4dHnfNyzd7H3nMy5W74Nb10cPwAWlKAzRfZI8vfz7MUku7jmfodlY/u6S5LMVjvyT5MFJPjXmMQP+oHsbKzxnWVxQ9uVJ8rZyW/ghuqhMh96pPhoAGdMqHYpXllkCz0rylL6T6dG4ncRKt/8eU15/eZIHTCj+BvxBP9bTIMDHl335M5Pcr+9kJvhmHyvtqwHw9Z7WW8UWpaWYcongO3vOpy9r7SR2Kufxq5zzd+QP9OkdSY4vBysv7zuZKXqpiX01AHpp7dSwT5JDy7+fXFqQJLdMcpMpz5lW/B35A207K8lBZbr348qB3ZCtqwbAKT2tt45DyjzRF5XLBKnmoRNebxT3AAAIfUlEQVSK/wsd+UPv1sMYgAPLvvtF5YBu6NbV/DObloGAfY+6nBY/KrMEpkwW1Hc+XY5AXesqgElhtL8Qw4v1eBXA0eV97pPkNwPIZ1pc0te4jL56AH5dRpEP3W5Jjir/XrmOlGu6skK3vyN/oG0r87hsUbr++6pxdXysNAQ61+fG+WSP667jCaVbe3QmKX7nyjKxhuIP9Gl0JteXV7hSaSg+3ncCfdh7AF0vVeO8kakjDx1APm3ELKcArkjyoAmfsW5/IfqN9XQKYGVw8X0HkEuduEVDNXWhbFJxJrmhxEdL3puWEZt959N01G0AKP5CDD/WSwPg62XffN0kPx1APvN8Pp3p8xTAxiSv73H9de2b5Gmr7ie9Xq10+5845nHd/kBXriz75F+XAYA37DuhGl5X4TlLa6cFGaW5EpeN3PL2uQPIp8mo2gPgyF+IxYn10APwnPK+HjaAXOrE5Uk2NFRLF9Z7B/BB1ImTS1fTJmVK3L7zaSqqNAAUfyEWK5a9AfCFsi/euYzV6jufOnFMw7V0Id1jAB9E3Xhpyf3G5RrOvvNpIureDXA1xV+I4cUyNwAuKfvglNORfedTJ65KcpuGaujMhnCN5BcXZE6AUYckuVuZKOiZfSczAM75A107uOyDn5TkgX0nU9P7k3yn7ySG4gEDaJHVjTNGZglctNbnWjFrD8CzBpC7EGLtWNYegJUByIvaC9v70X8G0gOQMinQItwfYNTNkrym/PuAJOf3nE8fnpXk1X0nAawr55d97iZJ3j5yILYoPjiUo/+hNACS5K/6TmAGTyqzBJ5TZgxcTxR/oA9PKPvc55UxZIvkyiTP7juJFUNqAPxPklf0ncQMjikjUI9P8ua+k5nD6stRLlrjOSvfl+cq/rAQLl7j/60+3bdI3lz2tXuODMZeJIe4p8x4WyT57gDOz9SNE0r+25RBKX3nM0vsteqzeNuY5500gFyFENXiTWvsZxdpGvbR+GHZx2ZBZ2OddBVVL4bUA5AyMcKBfScxgz9KclBpbT+272RmdMtV//2eMc+7Zwe5AM1YqwGwZw95NGH/so89LMnt+06mpsuSPK7vJBbF8wfQWpslbl7yP3IAudSNf1/jc/j0APISQswWx47Zv/7XAHKrG0eW3Bdx3piNSR7dUq1cWh8awIdWN/675L5FklMHkE+dODfJtqs+g53KaNW+cxNC1IsTx0wzu+MCXjb3nbJP3aqcP+87n7qxSPe8GYztk5w5gA+vbry45L/PAHKpG4eu8Tlsk+SVSb4/gPyEEJPjpCSPnLBffe0Acqwbdyy5v34AudSNrzdfGpuzSd8JTHH7Mtfzoo1avVvpDfj7JP/YdzI17Z3ka2Me2zHJ7RbgewPrzVVJvl168sa5Z2kgLJIXlQOTB064++hQnZXkruVAlhn9/gBacXXjjJHuty8NIJ868d1yT21geey8gD2qXyq5b1+Kad/51Inzkty65898afzxAD7QuvGGkvseZQRo3/nUidOT3Krnzxxoxj4LWPwvK/vOlHnz+86nbu536fkzXzqPHcAHWzceXHJ/+gBymSUOH7nuFlgsOyc5agD7kVniaeU9PGYAudSJS5Lcv+fPvbJFO5d77zIL1HZ9J1LR2Ulum+QXST5Rbnq0iD6b5PNlkqMfJbmi74SAa9g8yU1K3CfJ3ftOaEafTPIHSXYpV1MtykHID8ucMIOY57+KRWsApNyE5+Pl7yL4WBnAcsMkpzm/DjDWRWWiorPKPCT37Tuhir6cZL8pgzAHZ2gzAVbxvSR3SvLuvhOpaN8kTy5f6Gf2nQzAgD2z7CufsUDF/8gkv7doxT8L2gMw6glJjk6yZd+JTHFpuf/zD5N8s1xKB8DvfKvck2T3JD/oO5kKzilj0z7edyKzWsQegFHHli/M0K9t3VDmBEiSl/ScC8AQvaj8ffHkpw3C28tlfgtb/LMEPQCjDigz1l2v70TGuLIMXvx1kp+Xa1sB+O3R9A3KdL/nJ7l23wmNcUaSpyT5VN+JNGHRewBG/We5dv0NFZ7bh82SPDTJr5K8s+9kAAbkv8pshg8faPG/OMkh5YZvS1H8s2QNgCS5IMlTy4j7l5XL74ZkZV6AT/ecB8CQfKL8/eOe81jte0meleRGZV6UpbJMpwDWsmWSx5f4vb6TKYMAb1K+TD/pOxmAgdihdP2fN5DToycm+bck7+k7kTYtewNg1M2THJhk/yQ37TGPrcpVARct0AQXAG35Wem13bHnXttTyqnktw6w97gV66kBMOpOZdKGh5Q793XpFmWu/VPLhBcA69nK5X+3KpOldenEJB9O8oHSQ7uubNp3Aj05pcShpevpruXa091K7Fr+7tLCHAMr2/yihpcLsIguLX/bOCC9uNwIaSV+XP5+r9yy/bIW1rkw1msDYNR5ST4y4fHtS0Ngp4bW96Py95T1/uUDKL2hKfvG+zW0zHPKZEK/bGh5AAAAAAAAAAAAAAAAAAAAAAAAAAAAAAAAAAAAAAAAAAAAAAAAAAAAAAAAAAAAAAAAAAAAAAAAAAAAAAAAAAAAAAAAAAAAAAAAAAAAAAAAAAAAAAAAAAAAAAAAAAAAAAAAAAAAAAAAAAAAAAAAAAAAAAAAAAAAAAAAAAAAAAAAAAAAAAAAAAAAAAAAAAAAAAAAAAAAAAAAAAAAAAAAAAAAAAAAAAAAAAAAAAAAAAAAAAAAAAAAAAAAAAAAAAAAAAAAAAAAAAAAAAAAAAAAAAAAAAAAAAAAAAAAAAAAAAAAAAAAAAAAAAAAAAAAAAAAAAAAAAAAAAAAAAAAAAAAAAAAAAAAAAAAAAAAAAAAAAAAAAAAAAAAAAAAAAAAAAAAAAAAAAAAAAAAAAAAAAAAAAAAAAAAAAAAAAAAAAAAAAAAAAAAAAAAAECD/h//hTZ75pcFXgAAAABJRU5ErkJggg==;" parent="1" vertex="1">
                    <mxGeometry x="540" y="260" width="290" height="290" as="geometry"/>
                </mxCell>
                <mxCell id="4" value="" style="image;sketch=0;aspect=fixed;html=1;points=[];align=center;fontSize=12;image=img/lib/mscae/Docker.svg;" parent="1" vertex="1">
                    <mxGeometry x="120" y="90" width="109.76" height="90" as="geometry"/>
                </mxCell>
                <mxCell id="5" value="" style="image;sketch=0;aspect=fixed;html=1;points=[];align=center;fontSize=12;image=img/lib/mscae/Docker.svg;" parent="1" vertex="1">
                    <mxGeometry x="630.12" y="130" width="109.76" height="90" as="geometry"/>
                </mxCell>
                <mxCell id="6" value="" style="sketch=0;points=[[0,0,0],[0.25,0,0],[0.5,0,0],[0.75,0,0],[1,0,0],[0,1,0],[0.25,1,0],[0.5,1,0],[0.75,1,0],[1,1,0],[0,0.25,0],[0,0.5,0],[0,0.75,0],[1,0.25,0],[1,0.5,0],[1,0.75,0]];outlineConnect=0;fontColor=#232F3E;fillColor=#8C4FFF;strokeColor=#ffffff;dashed=0;verticalLabelPosition=bottom;verticalAlign=top;align=center;html=1;fontSize=12;fontStyle=0;aspect=fixed;shape=mxgraph.aws4.resourceIcon;resIcon=mxgraph.aws4.sql_workbench;" parent="1" vertex="1">
                    <mxGeometry x="649.06" y="-20" width="78" height="78" as="geometry"/>
                </mxCell>
                <mxCell id="7" value="" style="points=[[0,0.58,0],[0.09,0.58,0],[0.36,0.39,0],[0.64,0.195,0],[0.91,0,0],[1,0,0],[1,0.25,0],[1,0.5,0],[1,0.75,0],[1,1,0],[0,1,0],[0.09,1,0],[0.36,1,0],[0.64,1,0],[0.91,1,0],[0,0.79,0]];verticalLabelPosition=bottom;sketch=0;html=1;verticalAlign=top;aspect=fixed;align=center;pointerEvents=1;shape=mxgraph.cisco19.wifi_indicator;fillColor=#005073;strokeColor=none;" parent="1" vertex="1">
                    <mxGeometry x="410" y="-50" width="50" height="50" as="geometry"/>
                </mxCell>
                <mxCell id="9" value="" style="endArrow=classic;startArrow=classic;html=1;entryX=0;entryY=1;entryDx=0;entryDy=0;entryPerimeter=0;strokeWidth=5;fillColor=#d5e8d4;strokeColor=#82b366;" parent="1" target="7" edge="1">
                    <mxGeometry width="50" height="50" relative="1" as="geometry">
                        <mxPoint x="220" y="100" as="sourcePoint"/>
                        <mxPoint x="270" y="50" as="targetPoint"/>
                    </mxGeometry>
                </mxCell>
                <mxCell id="10" value="" style="endArrow=classic;startArrow=classic;html=1;entryX=0;entryY=1;entryDx=0;entryDy=0;entryPerimeter=0;strokeWidth=5;fillColor=#d5e8d4;strokeColor=#82b366;exitX=0.02;exitY=0.333;exitDx=0;exitDy=0;exitPerimeter=0;" parent="1" source="5" edge="1">
                    <mxGeometry width="50" height="50" relative="1" as="geometry">
                        <mxPoint x="570" y="90" as="sourcePoint"/>
                        <mxPoint x="460" y="-2" as="targetPoint"/>
                    </mxGeometry>
                </mxCell>
                <mxCell id="11" value="" style="endArrow=classic;startArrow=classic;html=1;entryX=0.507;entryY=1.028;entryDx=0;entryDy=0;entryPerimeter=0;strokeWidth=5;fillColor=#d5e8d4;strokeColor=#82b366;exitX=0.44;exitY=0.271;exitDx=0;exitDy=0;exitPerimeter=0;" parent="1" source="2" target="4" edge="1">
                    <mxGeometry width="50" height="50" relative="1" as="geometry">
                        <mxPoint x="160" y="280" as="sourcePoint"/>
                        <mxPoint x="350" y="180" as="targetPoint"/>
                    </mxGeometry>
                </mxCell>
                <mxCell id="12" value="" style="endArrow=classic;startArrow=classic;html=1;entryX=0.507;entryY=1.028;entryDx=0;entryDy=0;entryPerimeter=0;strokeWidth=5;fillColor=#d5e8d4;strokeColor=#82b366;exitX=0.498;exitY=0.31;exitDx=0;exitDy=0;exitPerimeter=0;" parent="1" source="3" edge="1">
                    <mxGeometry width="50" height="50" relative="1" as="geometry">
                        <mxPoint x="685" y="280" as="sourcePoint"/>
                        <mxPoint x="684.5" y="220" as="targetPoint"/>
                    </mxGeometry>
                </mxCell>
                <mxCell id="13" value="&lt;b&gt;&lt;font style=&quot;font-size: 20px;&quot;&gt;Local Wifi&lt;/font&gt;&lt;/b&gt;" style="text;html=1;align=center;verticalAlign=middle;whiteSpace=wrap;rounded=0;" parent="1" vertex="1">
                    <mxGeometry x="370" y="-80" width="130" height="30" as="geometry"/>
                </mxCell>
                <mxCell id="14" value="&lt;font style=&quot;font-size: 20px;&quot;&gt;&lt;b&gt;frontend&lt;/b&gt;&lt;/font&gt;" style="text;html=1;align=center;verticalAlign=middle;whiteSpace=wrap;rounded=0;" parent="1" vertex="1">
                    <mxGeometry x="10" y="120" width="130" height="30" as="geometry"/>
                </mxCell>
                <mxCell id="15" value="&lt;font style=&quot;font-size: 20px;&quot;&gt;&lt;b&gt;backend&lt;/b&gt;&lt;/font&gt;" style="text;html=1;align=center;verticalAlign=middle;whiteSpace=wrap;rounded=0;" parent="1" vertex="1">
                    <mxGeometry x="739.88" y="165" width="130" height="30" as="geometry"/>
                </mxCell>
                <mxCell id="17" value="&lt;font style=&quot;font-size: 20px;&quot;&gt;&lt;b&gt;base de datos&lt;/b&gt;&lt;/font&gt;" style="text;html=1;align=center;verticalAlign=middle;whiteSpace=wrap;rounded=0;" parent="1" vertex="1">
                    <mxGeometry x="724.9399999999999" y="4" width="166" height="30" as="geometry"/>
                </mxCell>
                <mxCell id="19" value="&lt;font style=&quot;font-size: 20px;&quot;&gt;Alta capacidad computacional&lt;/font&gt;" style="text;html=1;align=center;verticalAlign=middle;whiteSpace=wrap;rounded=0;" parent="1" vertex="1">
                    <mxGeometry x="595" y="475" width="180" height="30" as="geometry"/>
                </mxCell>
                <mxCell id="21" value="&lt;font style=&quot;font-size: 20px;&quot;&gt;Baja capacidad computacional&lt;/font&gt;" style="text;html=1;align=center;verticalAlign=middle;whiteSpace=wrap;rounded=0;" parent="1" vertex="1">
                    <mxGeometry x="110" y="485" width="160" height="30" as="geometry"/>
                </mxCell>
                <mxCell id="22" value="&lt;font style=&quot;font-size: 20px;&quot;&gt;IP:192.168.1.20&lt;/font&gt;" style="text;html=1;align=center;verticalAlign=middle;whiteSpace=wrap;rounded=0;" parent="1" vertex="1">
                    <mxGeometry x="180" y="250" width="160" height="30" as="geometry"/>
                </mxCell>
                <mxCell id="23" value="&lt;font style=&quot;font-size: 20px;&quot;&gt;IP:192.168.1.21&lt;/font&gt;" style="text;html=1;align=center;verticalAlign=middle;whiteSpace=wrap;rounded=0;" parent="1" vertex="1">
                    <mxGeometry x="690" y="250" width="160" height="30" as="geometry"/>
                </mxCell>
                <mxCell id="24" value="" style="endArrow=classic;startArrow=classic;html=1;strokeWidth=5;fillColor=#d5e8d4;strokeColor=#82b366;" parent="1" edge="1">
                    <mxGeometry width="50" height="50" relative="1" as="geometry">
                        <mxPoint x="685" y="130" as="sourcePoint"/>
                        <mxPoint x="685" y="58" as="targetPoint"/>
                    </mxGeometry>
                </mxCell>
            </root>
        </mxGraphModel>
    </diagram>
</mxfile>